<svg id="Layer_1" data-name="Layer 1" xmlns="http://www.w3.org/2000/svg" viewBox="0 0 995.408 800.988">
  <g>
    <g>
      <polygon points="285.941 691.828 148.144 691.828 148.144 512.242 259.583 512.242 285.941 539.811 285.941 691.828" fill="#292a2e" opacity="0.1"></polygon>
      <polygon points="259.583 512.242 259.583 539.401 285.941 539.811 259.583 512.242" fill="#292a2e" opacity="0.1"></polygon>
      <path d="M226.454,583.222v8.49a6.96,6.96,0,0,1-6.96,6.959h-84.68a6.96,6.96,0,0,0-6.96,6.96V719a6.96,6.96,0,0,0,6.96,6.96H299.271a6.96,6.96,0,0,0,6.96-6.96V583.222a6.96,6.96,0,0,0-6.96-6.96H233.414A6.96,6.96,0,0,0,226.454,583.222Z" fill="#fff"></path>
      <path d="M226.454,583.222v8.49a6.96,6.96,0,0,1-6.96,6.959h-84.68a6.96,6.96,0,0,0-6.96,6.96V719a6.96,6.96,0,0,0,6.96,6.96H299.271a6.96,6.96,0,0,0,6.96-6.96V583.222a6.96,6.96,0,0,0-6.96-6.96H233.414A6.96,6.96,0,0,0,226.454,583.222Z" fill="#292a2e" opacity="0.05"></path>
    </g>
    <g>
      <polygon points="461.929 256.351 324.133 256.351 324.133 76.765 435.572 76.765 461.929 104.334 461.929 256.351" fill="#292a2e" opacity="0.1"></polygon>
      <polygon points="435.572 76.765 435.572 103.924 461.929 104.334 435.572 76.765" fill="#292a2e" opacity="0.1"></polygon>
      <path d="M402.443,147.745v8.489a6.96,6.96,0,0,1-6.96,6.96H310.8a6.96,6.96,0,0,0-6.959,6.96V283.519a6.96,6.96,0,0,0,6.959,6.96H475.26a6.96,6.96,0,0,0,6.96-6.96V147.745a6.96,6.96,0,0,0-6.96-6.96H409.4A6.96,6.96,0,0,0,402.443,147.745Z" fill="#fff"></path>
      <path d="M402.443,147.745v8.489a6.96,6.96,0,0,1-6.96,6.96H310.8a6.96,6.96,0,0,0-6.959,6.96V283.519a6.96,6.96,0,0,0,6.959,6.96H475.26a6.96,6.96,0,0,0,6.96-6.96V147.745a6.96,6.96,0,0,0-6.96-6.96H409.4A6.96,6.96,0,0,0,402.443,147.745Z" fill="#292a2e" opacity="0.05"></path>
    </g>
    <g>
      <polygon points="973.96 641.613 836.164 641.613 836.164 462.028 947.603 462.028 973.96 489.596 973.96 641.613" fill="#292a2e" opacity="0.1"></polygon>
      <polygon points="947.603 462.028 947.603 489.187 973.96 489.596 947.603 462.028" fill="#292a2e" opacity="0.1"></polygon>
      <path d="M914.474,533.007v8.49a6.96,6.96,0,0,1-6.96,6.96H822.833a6.96,6.96,0,0,0-6.96,6.96V668.781a6.96,6.96,0,0,0,6.96,6.96H987.291a6.96,6.96,0,0,0,6.96-6.96V533.007a6.96,6.96,0,0,0-6.96-6.959H921.434A6.96,6.96,0,0,0,914.474,533.007Z" fill="#fff"></path>
      <path d="M914.474,533.007v8.49a6.96,6.96,0,0,1-6.96,6.96H822.833a6.96,6.96,0,0,0-6.96,6.96V668.781a6.96,6.96,0,0,0,6.96,6.96H987.291a6.96,6.96,0,0,0,6.96-6.96V533.007a6.96,6.96,0,0,0-6.96-6.959H921.434A6.96,6.96,0,0,0,914.474,533.007Z" fill="#292a2e" opacity="0.05"></path>
    </g>
    <g>
      <path d="M948.219,108.209a93.374,93.374,0,0,0-11.972-62.942A92.037,92.037,0,0,0,879.368,2.824a93.387,93.387,0,0,0-18.461-2.7V.036H829.151v4.3a92.016,92.016,0,0,0-53.2,43.858,46.346,46.346,0,0,0-25.572-7.62c-1.431,0-2.922.071-4.34.207H724.58l-7.012,13.232-.154.15c-.207.2-.412.4-.611.6A47.668,47.668,0,0,0,703.675,82.18c-36.931,2.646-66.431,33.69-67.317,71.033a72.953,72.953,0,0,0,20,52.075,71.886,71.886,0,0,0,50.772,22.565l228.162.029c33.149,0,60.118-27.16,60.118-60.546C995.408,138.423,976.052,114.243,948.219,108.209Z" fill="#292a2e"></path>
      <g>
        <path d="M911.776,226.917c32.611,0,59.154-26.721,59.154-59.58A59.04,59.04,0,0,0,923.6,108.964a91.9,91.9,0,0,0-11.693-63.2,91.206,91.206,0,0,0-159.129,3.824,45.8,45.8,0,0,0-58.8,5.85A46.662,46.662,0,0,0,681.03,83.09c-36.552,2.2-66.336,32.816-67.221,70.146a71.981,71.981,0,0,0,19.732,51.387,70.906,70.906,0,0,0,50.073,22.265Z" fill="#fff"></path>
        <path d="M911.776,227.917l-228.162-.029a71.929,71.929,0,0,1-50.8-22.576,72.981,72.981,0,0,1-20.007-52.1c.886-37.352,30.384-68.4,67.321-71.064a47.715,47.715,0,0,1,13.134-27.412,46.807,46.807,0,0,1,59.157-6.6,92.215,92.215,0,0,1,160.342-2.892,93.4,93.4,0,0,1,11.982,62.934c27.834,6.048,47.185,30.235,47.185,59.155C971.93,200.741,944.945,227.917,911.776,227.917ZM726.862,42.535a44.469,44.469,0,0,0-32.164,13.6A45.7,45.7,0,0,0,682.024,83.2l-.088.843-.846.051c-36.3,2.184-65.414,32.567-66.281,69.17a70.993,70.993,0,0,0,19.459,50.678,69.929,69.929,0,0,0,49.369,21.951l228.139.029c32.066,0,58.154-26.279,58.154-58.58,0-28.282-19.134-51.883-46.529-57.393l-.955-.192.167-.96a91.4,91.4,0,0,0-11.567-62.519A90.2,90.2,0,0,0,753.66,50.056l-.529.99-.923-.638A44.392,44.392,0,0,0,726.862,42.535Z" fill="#292a2e"></path>
      </g>
    </g>
    <g>
      <g>
        <rect x="671.418" y="159.4" width="100.473" height="640.271" fill="#262626"></rect>
        <path d="M772.89,800.672H670.417V158.4H772.89Zm-100.473-2H770.89V160.4H672.417Z" fill="#292a2e"></path>
      </g>
      <g>
        <rect x="357.578" y="159.4" width="313.84" height="640.271" transform="translate(1028.995 959.072) rotate(180)" fill="#fff"></rect>
        <path d="M672.417,800.672H356.578V158.4H672.417Zm-313.839-2H670.417V160.4H358.578Z" fill="#292a2e"></path>
      </g>
      <g>
        <rect x="380.86" y="185.152" width="267.274" height="59.97" fill="#1E3D59"></rect>
        <g opacity="0.5">
          <rect x="380.86" y="185.152" width="267.274" height="59.97" fill="#fff"></rect>
        </g>
        <path d="M648.135,246.122H380.861a1,1,0,0,1-1-1v-59.97a1,1,0,0,1,1-1H648.135a1,1,0,0,1,1,1v59.97A1,1,0,0,1,648.135,246.122Zm-266.274-2H647.135v-57.97H381.861Z" fill="#292a2e"></path>
        <g>
          <circle cx="411.154" cy="215.137" r="12.303" fill="#fff"></circle>
          <path d="M411.155,228.44a13.3,13.3,0,1,1,13.3-13.3A13.318,13.318,0,0,1,411.155,228.44Zm0-24.6a11.3,11.3,0,1,0,11.3,11.3A11.315,11.315,0,0,0,411.155,203.835Z" fill="#292a2e"></path>
        </g>
        <path d="M592.31,214.9H439.332a1,1,0,0,1,0-2H592.31a1,1,0,0,1,0,2Z" fill="#292a2e"></path>
        <path d="M614.8,214.9h-3.174a1,1,0,0,1,0-2H614.8a1,1,0,0,1,0,2Z" fill="#292a2e"></path>
        <path d="M603.657,214.9h-3.175a1,1,0,0,1,0-2h3.175a1,1,0,0,1,0,2Z" fill="#292a2e"></path>
        <path d="M626.705,214.9H623.53a1,1,0,0,1,0-2h3.175a1,1,0,0,1,0,2Z" fill="#292a2e"></path>
      </g>
      <g>
        <rect x="380.86" y="268.405" width="267.274" height="59.97" fill="#1E3D59"></rect>
        <g opacity="0.5">
          <rect x="380.86" y="268.405" width="267.274" height="59.97" fill="#fff"></rect>
        </g>
        <path d="M648.135,329.375H380.861a1,1,0,0,1-1-1V268.4a1,1,0,0,1,1-1H648.135a1,1,0,0,1,1,1v59.97A1,1,0,0,1,648.135,329.375Zm-266.274-2H647.135V269.4H381.861Z" fill="#292a2e"></path>
        <g>
          <circle cx="411.154" cy="298.39" r="12.303" fill="#fff"></circle>
          <path d="M411.155,311.693a13.3,13.3,0,1,1,13.3-13.3A13.318,13.318,0,0,1,411.155,311.693Zm0-24.6a11.3,11.3,0,1,0,11.3,11.3A11.315,11.315,0,0,0,411.155,287.088Z" fill="#292a2e"></path>
        </g>
        <path d="M592.31,298.155H439.332a1,1,0,0,1,0-2H592.31a1,1,0,0,1,0,2Z" fill="#292a2e"></path>
        <path d="M614.8,298.155h-3.174a1,1,0,0,1,0-2H614.8a1,1,0,0,1,0,2Z" fill="#292a2e"></path>
        <path d="M603.657,298.155h-3.175a1,1,0,0,1,0-2h3.175a1,1,0,0,1,0,2Z" fill="#292a2e"></path>
        <path d="M626.705,298.155H623.53a1,1,0,0,1,0-2h3.175a1,1,0,0,1,0,2Z" fill="#292a2e"></path>
      </g>
      <g>
        <rect x="380.86" y="351.658" width="267.274" height="59.97" fill="#1E3D59"></rect>
        <g opacity="0.5">
          <rect x="380.86" y="351.658" width="267.274" height="59.97" fill="#fff"></rect>
        </g>
        <path d="M648.135,412.628H380.861a1,1,0,0,1-1-1v-59.97a1,1,0,0,1,1-1H648.135a1,1,0,0,1,1,1v59.97A1,1,0,0,1,648.135,412.628Zm-266.274-2H647.135v-57.97H381.861Z" fill="#292a2e"></path>
        <g>
          <circle cx="411.154" cy="381.643" r="12.303" fill="#fff"></circle>
          <path d="M411.155,394.946a13.3,13.3,0,1,1,13.3-13.3A13.318,13.318,0,0,1,411.155,394.946Zm0-24.605a11.3,11.3,0,1,0,11.3,11.3A11.315,11.315,0,0,0,411.155,370.341Z" fill="#292a2e"></path>
        </g>
        <path d="M592.31,381.408H439.332a1,1,0,0,1,0-2H592.31a1,1,0,0,1,0,2Z" fill="#292a2e"></path>
        <path d="M614.8,381.408h-3.174a1,1,0,0,1,0-2H614.8a1,1,0,0,1,0,2Z" fill="#292a2e"></path>
        <path d="M603.657,381.408h-3.175a1,1,0,0,1,0-2h3.175a1,1,0,0,1,0,2Z" fill="#292a2e"></path>
        <path d="M626.705,381.408H623.53a1,1,0,0,1,0-2h3.175a1,1,0,0,1,0,2Z" fill="#292a2e"></path>
      </g>
      <path d="M648.135,495.881H380.861a1,1,0,0,1-1-1v-59.97a1,1,0,0,1,1-1H648.135a1,1,0,0,1,1,1v59.97A1,1,0,0,1,648.135,495.881Zm-266.274-2H647.135v-57.97H381.861Z" fill="#292a2e"></path>
      <g>
        <rect x="268.328" y="434.911" width="277.274" height="59.97" fill="#1E3D59"></rect>
        <g opacity="0.5">
          <rect x="268.328" y="434.911" width="277.274" height="59.97" fill="#fff"></rect>
        </g>
        <path d="M545.6,495.881H268.328a1,1,0,0,1-1-1v-59.97a1,1,0,0,1,1-1H545.6a1,1,0,0,1,1,1v59.97A1,1,0,0,1,545.6,495.881Zm-276.274-2H544.6v-57.97H269.328Z" fill="#292a2e"></path>
        <g>
          <circle cx="298.622" cy="464.896" r="12.303" fill="#fff"></circle>
          <path d="M298.622,478.2a13.3,13.3,0,1,1,13.3-13.3A13.318,13.318,0,0,1,298.622,478.2Zm0-24.6a11.3,11.3,0,1,0,11.3,11.3A11.315,11.315,0,0,0,298.622,453.593Z" fill="#292a2e"></path>
        </g>
        <path d="M489.777,464.661H326.8a1,1,0,0,1,0-2H489.777a1,1,0,0,1,0,2Z" fill="#292a2e"></path>
        <path d="M512.266,464.661h-3.175a1,1,0,0,1,0-2h3.175a1,1,0,0,1,0,2Z" fill="#292a2e"></path>
        <path d="M501.124,464.661H497.95a1,1,0,0,1,0-2h3.174a1,1,0,0,1,0,2Z" fill="#292a2e"></path>
        <path d="M524.172,464.661H521a1,1,0,0,1,0-2h3.175a1,1,0,0,1,0,2Z" fill="#292a2e"></path>
      </g>
      <g>
        <rect x="380.86" y="518.164" width="267.274" height="59.97" fill="#1E3D59"></rect>
        <g opacity="0.5">
          <rect x="380.86" y="518.164" width="267.274" height="59.97" fill="#fff"></rect>
        </g>
        <path d="M648.135,579.134H380.861a1,1,0,0,1-1-1v-59.97a1,1,0,0,1,1-1H648.135a1,1,0,0,1,1,1v59.97A1,1,0,0,1,648.135,579.134Zm-266.274-2H647.135v-57.97H381.861Z" fill="#292a2e"></path>
        <g>
          <circle cx="411.154" cy="548.149" r="12.303" fill="#fff"></circle>
          <path d="M411.155,561.451a13.3,13.3,0,1,1,13.3-13.3A13.318,13.318,0,0,1,411.155,561.451Zm0-24.605a11.3,11.3,0,1,0,11.3,11.3A11.315,11.315,0,0,0,411.155,536.846Z" fill="#292a2e"></path>
        </g>
        <path d="M592.31,547.914H439.332a1,1,0,0,1,0-2H592.31a1,1,0,0,1,0,2Z" fill="#292a2e"></path>
        <path d="M614.8,547.914h-3.174a1,1,0,0,1,0-2H614.8a1,1,0,0,1,0,2Z" fill="#292a2e"></path>
        <path d="M603.657,547.914h-3.175a1,1,0,0,1,0-2h3.175a1,1,0,0,1,0,2Z" fill="#292a2e"></path>
        <path d="M626.705,547.914H623.53a1,1,0,0,1,0-2h3.175a1,1,0,1,1,0,2Z" fill="#292a2e"></path>
      </g>
      <g>
        <rect x="380.86" y="601.417" width="267.274" height="59.97" fill="#1E3D59"></rect>
        <g opacity="0.5">
          <rect x="380.86" y="601.417" width="267.274" height="59.97" fill="#fff"></rect>
        </g>
        <path d="M648.135,662.387H380.861a1,1,0,0,1-1-1v-59.97a1,1,0,0,1,1-1H648.135a1,1,0,0,1,1,1v59.97A1,1,0,0,1,648.135,662.387Zm-266.274-2H647.135v-57.97H381.861Z" fill="#292a2e"></path>
        <g>
          <circle cx="411.154" cy="631.402" r="12.303" fill="#fff"></circle>
          <path d="M411.155,644.7a13.3,13.3,0,1,1,13.3-13.3A13.318,13.318,0,0,1,411.155,644.7Zm0-24.6a11.3,11.3,0,1,0,11.3,11.3A11.315,11.315,0,0,0,411.155,620.1Z" fill="#292a2e"></path>
        </g>
        <path d="M592.31,631.167H439.332a1,1,0,0,1,0-2H592.31a1,1,0,0,1,0,2Z" fill="#292a2e"></path>
        <path d="M614.8,631.167h-3.174a1,1,0,0,1,0-2H614.8a1,1,0,0,1,0,2Z" fill="#292a2e"></path>
        <path d="M603.657,631.167h-3.175a1,1,0,0,1,0-2h3.175a1,1,0,0,1,0,2Z" fill="#292a2e"></path>
        <path d="M626.705,631.167H623.53a1,1,0,0,1,0-2h3.175a1,1,0,0,1,0,2Z" fill="#292a2e"></path>
      </g>
      <g>
        <rect x="380.86" y="684.67" width="267.274" height="59.97" fill="#1E3D59"></rect>
        <g opacity="0.5">
          <rect x="380.86" y="684.67" width="267.274" height="59.97" fill="#fff"></rect>
        </g>
        <path d="M648.135,745.64H380.861a1,1,0,0,1-1-1V684.67a1,1,0,0,1,1-1H648.135a1,1,0,0,1,1,1v59.97A1,1,0,0,1,648.135,745.64Zm-266.274-2H647.135V685.67H381.861Z" fill="#292a2e"></path>
        <g>
          <circle cx="411.154" cy="714.655" r="12.303" fill="#fff"></circle>
          <path d="M411.155,727.957a13.3,13.3,0,1,1,13.3-13.3A13.318,13.318,0,0,1,411.155,727.957Zm0-24.605a11.3,11.3,0,1,0,11.3,11.3A11.315,11.315,0,0,0,411.155,703.352Z" fill="#292a2e"></path>
        </g>
        <path d="M592.31,714.42H439.332a1,1,0,0,1,0-2H592.31a1,1,0,0,1,0,2Z" fill="#292a2e"></path>
        <path d="M614.8,714.42h-3.174a1,1,0,0,1,0-2H614.8a1,1,0,0,1,0,2Z" fill="#292a2e"></path>
        <path d="M603.657,714.42h-3.175a1,1,0,0,1,0-2h3.175a1,1,0,0,1,0,2Z" fill="#292a2e"></path>
        <path d="M626.705,714.42H623.53a1,1,0,0,1,0-2h3.175a1,1,0,0,1,0,2Z" fill="#292a2e"></path>
      </g>
    </g>
    <g>
      <g>
        <path d="M77.339,747.122S66.154,763.654,78.357,777.4s-.947,21.27-.947,21.27L27.826,749.088,52.6,724.315Z" fill="#1E3D59"></path>
        <path d="M79.975,407.083s.22-5.891.174,7.473c-.078,22.192,2.034,80.839.55,156.425-1.186,60.421-43.246,164.1-43.246,164.1l37.935,27.229s57.063-92.554,66.119-184.179c4.636-46.9,14.119-173.076,14.119-173.076Z" fill="#262626"></path>
        <path d="M197.033,764.588s3.781,19.6,22.131,20.69,14.37,15.71,14.37,15.71H163.412V765.954Z" fill="#1E3D59"></path>
        <path d="M205.946,410.954s5.756,170.371,5.158,178.7l-5.413,186.154-45.316.837-7.308-193.723s-4.789-53.439-17.7-103.06A384.624,384.624,0,0,1,123.5,402.035h0Z" fill="#262626"></path>
        <path d="M146.163,531.746l3.779-57.787s3.881,24.024,3.881,44.731c0,10.122-2.085,50.194-2.085,50.194Z" fill="#0a0a0a"></path>
        <path d="M79.474,407.078l-.15.008S79.433,404.18,79.474,407.078Z" fill="#333"></path>
      </g>
      <path d="M79.664,407.078l-.151.008S79.622,404.18,79.664,407.078Z" fill="#333"></path>
      <g>
        <g>
          <path d="M109.337,191.854s-3.651,19.455-8.914,26.042c-15.151,18.965-21.585,41.568-10.305,55.126s92.391,23.426,101.847-3.529c7.961-22.693-2.843-26.527-3.246-46.08-.182-8.848-1.364-27.5-1.364-27.5" fill="#0a0a0a"></path>
          <path id="sk" d="M175.137,259.213c-.141-.019-1.706,25.951-31.875,23.687-20.887-1.565-28.334-23.724-28.812-23.724,2.251-.479,6.044-1.175,7.044-1.709,3.289-1.767,7.358-3.6,8.418-9.992.611-3.681-.426-22.514-.107-26.238l32.061,7.155c-.448,7.867-3.584,26.1,7.406,29.33C171.1,258.255,173.07,258.746,175.137,259.213Z" fill="#E98862"></path>
          <path id="sh" d="M162.315,250.269a23.2,23.2,0,0,1-.964-4.976,53.029,53.029,0,0,1,.209-11.573,35.151,35.151,0,0,1-17.719-7.763c-.595,2.2-3.869,11.805-2.963,13.9C142.592,243.8,150.644,250.269,162.315,250.269Z" fill="#0c0c0c" opacity="1"></path>
          <path d="M156.625,243.994c-12.7-.286-28.335-7.247-29.7-24.363l-1.232-15.444c-1.366-17.116,6.517-31.709,22.632-32.994h0c16.116-1.286,29.269,11.628,30.634,28.744l.546,6.837C180.028,213.341,179.277,244.505,156.625,243.994Z" fill="#E98862"></path>
          <circle cx="174.178" cy="208.444" r="1.991" fill="#0c0c0c"></circle>
          <circle cx="154.049" cy="208.569" r="1.991" fill="#0c0c0c"></circle>
          <path d="M164.128,221.276h.032a18.039,18.039,0,0,0,1.946-.278c.961-.2,2.23-.562,2.162-1.418-.077-.975-3.588-11.285-3.989-12.457a.408.408,0,1,0-.772.264c1.5,4.39,3.9,11.6,3.948,12.258-.137.287-1.74.687-3.36.817a.408.408,0,0,0,.033.815Z" fill="#0c0c0c" opacity="1"></path>
          <path d="M161.009,228.266a16.687,16.687,0,0,0,7.48-1.955.408.408,0,0,0-.369-.728c-4.976,2.528-9.649,2.52-13.513-.023a2.39,2.39,0,0,0-.242-.149.408.408,0,0,0-.357.733c.03.017.081.051.151.1A12.232,12.232,0,0,0,161.009,228.266Z" fill="#0c0c0c" opacity="1"></path>
          <path d="M112.489,208.1l14.437-1.069c11.19-3.182,16.434-21.394,16.434-21.394s11.655,14.1,43.995,10.282c0,0-1.582-44.7-49.59-36.927-15.479,2.5-27.9,16.493-28.743,36.887C108.434,210.169,112.489,208.1,112.489,208.1Z" fill="#0a0a0a"></path>
          <path d="M128.341,224.765c-4.9.391-9.285-4.531-9.676-9.429s3.364-7.915,8.261-8.306l2.786,3.08,2.84,14.319Z" fill="#E98862"></path>
          <path d="M168.036,199.412a9.336,9.336,0,0,1,4.843-.973,8.2,8.2,0,0,1,2.406.52,9.693,9.693,0,0,1,2.159,1.136.426.426,0,0,1-.45.724l-.029-.017a8.767,8.767,0,0,0-1.993-.936,7.228,7.228,0,0,0-2.145-.362,8.2,8.2,0,0,0-4.14,1.01l-.041.024a.641.641,0,0,1-.636-1.112Z" fill="#0c0c0c"></path>
          <path d="M155.09,201.023a8.208,8.208,0,0,0-4.247-.359,7.255,7.255,0,0,0-2.063.688,8.853,8.853,0,0,0-1.825,1.232l-.025.021a.426.426,0,0,1-.557-.645,9.74,9.74,0,0,1,1.958-1.456,8.257,8.257,0,0,1,2.3-.885,9.34,9.34,0,0,1,4.934.216.64.64,0,1,1-.4,1.215l-.026-.009Z" fill="#0c0c0c"></path>
          <path d="M161.146,232.133a8.372,8.372,0,0,0,1.409-.128.408.408,0,0,0-.14-.8,5.282,5.282,0,0,1-4.291-.765.408.408,0,0,0-.538.614A5.522,5.522,0,0,0,161.146,232.133Z" fill="#0c0c0c" opacity="1"></path>
          <path d="M126.976,206.854l-.1-.407c18.632-4.5,16.144-22.581,16.117-22.763l.413-.062C143.436,183.807,145.986,202.258,126.976,206.854Z" fill="#0c0c0c"></path>
        </g>
        <ellipse cx="151.267" cy="218.356" rx="3.793" ry="2.782" fill="#0c0c0c" opacity="0.1"></ellipse>
        <path d="M173.814,217.691c0,1.535,1.7,2.78,3.8,2.783a5.276,5.276,0,0,0,1.077-.112c.312-1.793.525-3.527.664-5.14a4.8,4.8,0,0,0-1.743-.313C175.514,214.906,173.816,216.151,173.814,217.691Z" fill="#0c0c0c" opacity="0.1"></path>
      </g>
      <g>
        <path d="M212.621,316.387c-.95,11.164-5.572,80.815-6.486,94.567H80.216c-.712-12.4-3.906-66.635-6.6-90.889-2.575-23.143-7.627-34.73-3.924-41.572,6.051-11.183,22.586-17.645,33.86-19.171,6.885-.932,17.24-1.6,17.24-1.6s.876,17.736,21.782,18.723c28.459,1.343,26.559-18.723,26.7-18.723,4.61,0,30.948,2.918,37.391,6.737C224.221,274.857,214.639,292.728,212.621,316.387Z" fill="#1E3D59"></path>
        <g>
          <path d="M308.331,336.8a3.129,3.129,0,0,1,4.164-1.812,3.247,3.247,0,0,1,1.657,4.113l-1.441,3.972,9.053-9.231c1.125-1.181,3.261-1.911,4.5-.562,1.076,1.025,3.563,1.34,3.967,3.261.014.01-.011,17.584-1.055,18.679h0c-4.428,4.65-15.131,5.549-21.1,3.188l-9.4-3.716Z" fill="#E98862"></path>
          <g opacity="0.1">
            <path d="M308.331,336.8a3.129,3.129,0,0,1,4.164-1.812,3.247,3.247,0,0,1,1.657,4.113l-1.441,3.972,9.053-9.231c1.125-1.181,3.261-1.911,4.5-.562,1.076,1.025,3.563,1.34,3.967,3.261.014.01-.011,17.584-1.055,18.679h0c-4.428,4.65-15.131,5.549-21.1,3.188l-9.4-3.716Z" fill="#0c0c0c"></path>
          </g>
        </g>
        <g>
          <path d="M256.684,296.4l.125,6.29a4.216,4.216,0,0,1-5.228,4.256L186.719,296a4.216,4.216,0,0,0-5.228,4.257L175.5,383.3a6.63,6.63,0,0,0,5.434,6.056l126.1,22.2a4.217,4.217,0,0,0,5.229-4.257l2.589-100.587a6.629,6.629,0,0,0-5.434-6.056l-47.508-8.511A4.216,4.216,0,0,0,256.684,296.4Z" fill="#262626"></path>
          <path d="M307.942,412.627a6.409,6.409,0,0,1-1.071-.091l-126.111-22.2a7.673,7.673,0,0,1-6.26-7.021l5.994-83.133a5.072,5.072,0,0,1,1.746-4,5.637,5.637,0,0,1,4.645-1.176l64.863,10.944a3.582,3.582,0,0,0,3.006-.718,3.17,3.17,0,0,0,1.055-2.532l-.125-6.29a5.147,5.147,0,0,1,1.749-4.087,5.644,5.644,0,0,1,4.646-1.176l47.518,8.514a7.573,7.573,0,0,1,6.257,7.021l-2.59,100.631a5.115,5.115,0,0,1-1.747,4.041A5.431,5.431,0,0,1,307.942,412.627ZM185.792,296.918a3.384,3.384,0,0,0-2.246.783,3.178,3.178,0,0,0-1.055,2.533L176.5,383.368a5.589,5.589,0,0,0,4.6,5l126.11,22.2a3.587,3.587,0,0,0,3-.72,3.174,3.174,0,0,0,1.054-2.532l2.59-100.632a5.591,5.591,0,0,0-4.6-5.044l-47.518-8.514a3.6,3.6,0,0,0-3,.72,3.181,3.181,0,0,0-1.056,2.533l.125,6.289a5.145,5.145,0,0,1-1.748,4.087,5.627,5.627,0,0,1-4.645,1.176l-64.863-10.945A4.548,4.548,0,0,0,185.792,296.918Z" fill="#292a2e"></path>
        </g>
        <g>
          <g>
            <polygon points="295.441 390.632 192.644 377.544 209.702 243.572 292.836 254.157 309.88 277.227 295.441 390.632" fill="#fff"></polygon>
            <path d="M295.441,391.633a1.066,1.066,0,0,1-.126-.008l-102.8-13.089a1,1,0,0,1-.866-1.118l17.057-133.973a1.008,1.008,0,0,1,.38-.665,1.019,1.019,0,0,1,.739-.2l83.134,10.586a1.006,1.006,0,0,1,.679.4l17.044,23.07a1.006,1.006,0,0,1,.188.72l-14.44,113.406a1,1,0,0,1-.992.874ZM193.762,376.679l100.814,12.836L308.837,277.5l-16.551-22.4-81.719-10.407Z" fill="#292a2e"></path>
          </g>
          <g>
            <polygon points="292.836 254.157 290.256 274.418 309.88 277.227 292.836 254.157" fill="#fff"></polygon>
            <path d="M309.88,278.227a.965.965,0,0,1-.141-.01l-19.624-2.809a1,1,0,0,1-.851-1.116l2.58-20.261a1,1,0,0,1,1.8-.468l17.044,23.07a1,1,0,0,1-.805,1.594Zm-18.507-4.66,16.283,2.33-14.143-19.14Z" fill="#292a2e"></path>
          </g>
        </g>
        <g>
          <polygon points="291.369 391.528 194.287 355.285 241.522 228.761 320.034 258.071 331.353 284.427 291.369 391.528" fill="#1E3D59"></polygon>
          <g opacity="0.43">
            <polygon points="291.369 391.528 194.287 355.285 241.522 228.761 320.034 258.071 331.353 284.427 291.369 391.528" fill="#fff"></polygon>
          </g>
          <path d="M291.37,392.528a1,1,0,0,1-.35-.063l-97.083-36.243a1,1,0,0,1-.587-1.286l47.235-126.525a1,1,0,0,1,1.287-.587l78.512,29.311a1,1,0,0,1,.57.542l11.318,26.355a1,1,0,0,1,.018.744l-39.984,107.1A1,1,0,0,1,291.37,392.528Zm-95.8-37.83,95.21,35.544,39.493-105.789-10.991-25.595-77.176-28.811Z" fill="#292a2e"></path>
          <g>
            <polygon points="320.034 258.071 312.891 277.206 331.353 284.427 320.034 258.071" fill="#fff"></polygon>
            <path d="M331.353,285.427a1,1,0,0,1-.364-.069l-18.462-7.22a1,1,0,0,1-.572-1.282l7.143-19.134a1,1,0,0,1,.912-.651h.025a1,1,0,0,1,.919.606l11.318,26.355a1,1,0,0,1-.919,1.4Zm-17.181-8.793,15.319,5.991L320.1,260.757Z" fill="#292a2e"></path>
          </g>
          <path d="M312.834,295.483a.994.994,0,0,1-.349-.063l-71.846-26.843a1,1,0,0,1,.7-1.873l71.846,26.843a1,1,0,0,1-.35,1.936Z" fill="#292a2e"></path>
          <path d="M307.512,308.727a1,1,0,0,1-.349-.064L235.317,281.82a1,1,0,0,1,.7-1.873l71.846,26.843a1,1,0,0,1-.35,1.937Z" fill="#292a2e"></path>
          <path d="M302.521,322.027a1,1,0,0,1-.35-.063l-71.845-26.843a1,1,0,1,1,.7-1.873l71.846,26.843a1,1,0,0,1-.35,1.936Z" fill="#292a2e"></path>
        </g>
        <g>
          <path d="M271.608,296.4l-1.1,6.29a5.234,5.234,0,0,1-6.056,4.256L201.72,296a5.234,5.234,0,0,0-6.056,4.257l-14.651,83.985a5.234,5.234,0,0,0,4.256,6.056L307.106,411.55a5.235,5.235,0,0,0,6.056-4.257l3.647-20.906,11.9-68.235,2-11.446a5.234,5.234,0,0,0-4.257-6.056l-48.79-8.511A5.234,5.234,0,0,0,271.608,296.4Z" fill="#fff"></path>
          <path d="M308.008,412.628a6.232,6.232,0,0,1-1.073-.093L185.1,391.28a6.242,6.242,0,0,1-5.069-7.213l14.651-83.985a6.235,6.235,0,0,1,7.213-5.07l62.734,10.944a4.232,4.232,0,0,0,4.9-3.443l1.1-6.289a6.233,6.233,0,0,1,7.212-5.071l48.79,8.512a6.235,6.235,0,0,1,5.07,7.213L314.148,407.465A6.246,6.246,0,0,1,308.008,412.628Zm-107.2-115.71a4.234,4.234,0,0,0-4.161,3.508L182,384.411a4.238,4.238,0,0,0,3.442,4.9l121.838,21.254a4.237,4.237,0,0,0,4.9-3.443l17.547-100.587a4.237,4.237,0,0,0-3.442-4.9l-48.79-8.512a4.233,4.233,0,0,0-4.9,3.443l-1.1,6.289a6.234,6.234,0,0,1-7.213,5.071l-62.735-10.945A4.275,4.275,0,0,0,200.811,296.918Z" fill="#292a2e"></path>
        </g>
        <path d="M317.2,347.788a2.562,2.562,0,0,1,2.468-1.866c-.007-.045-.056-.148.022-.156l-1.923-.934a2.607,2.607,0,0,1-1.409-3.124,2.512,2.512,0,0,1,2.94-1.644c-.008-.024,0-.05,0-.075l-.79-.384a2.575,2.575,0,0,1-1.421-2.931,2.515,2.515,0,0,1,3.533-1.631l1.824.885c0-.01,0-.021,0-.031s.022-.016.03-.028a2.509,2.509,0,0,1-.692-3.056c.555-1.365,2.368-1.416,3.547-.844l3.574,2.092a3.877,3.877,0,0,1,1.911,3.126c.319,5.521.807,19.963-2.957,18.135l-9.265-4.5A2.722,2.722,0,0,1,317.2,347.788Z" fill="#E98862"></path>
        <g>
          <path d="M213.627,371.2a2.974,2.974,0,0,0-2.162-2.672.256.256,0,0,0,.03-.156.264.264,0,0,0-.185-.188l2.475-.549a3.092,3.092,0,0,0,2.482-3.217,2.979,2.979,0,0,0-2.94-2.7c.016-.025.009-.058.017-.087l1.017-.226a3.052,3.052,0,0,0,2.444-2.991,2.984,2.984,0,0,0-3.628-2.852l-2.347.521c0-.013.01-.023.007-.036s-.02-.025-.026-.04a2.979,2.979,0,0,0,1.638-3.336c-.266-1.727-2.343-2.284-3.86-1.947l-13.695,2.79,3.249-2.375a3.093,3.093,0,0,0,.874-4.133,2.98,2.98,0,0,0-4.256-.779l-17.74,12.97a9.9,9.9,0,0,0-2.313,13.611h0a15.012,15.012,0,0,0,15.617,6.144l20.858-4.63A3.19,3.19,0,0,0,213.627,371.2Z" fill="#E98862"></path>
          <g opacity="0.25">
            <path d="M197.28,358.827a.275.275,0,0,0,.323.208l13.02-2.671a.275.275,0,0,0-.11-.538l-13.02,2.67a.273.273,0,0,0-.214.324Z" fill="#0c0c0c"></path>
          </g>
          <g opacity="0.25">
            <path d="M198.3,364.6a.275.275,0,0,0,.324.208l14.53-2.98a.274.274,0,0,0,.214-.324.284.284,0,0,0-.325-.214l-14.53,2.979a.275.275,0,0,0-.214.325Z" fill="#0c0c0c"></path>
          </g>
          <g opacity="0.25">
            <path d="M199.367,370.862a.274.274,0,0,0,.323.208l11.591-2.377a.274.274,0,0,0,.214-.324.277.277,0,0,0-.325-.215l-11.59,2.377a.275.275,0,0,0-.214.325Z" fill="#0c0c0c"></path>
          </g>
        </g>
        <path id="b_4_b" d="M189.035,387.2,75.867,407.652a22.991,22.991,0,0,1-25.159-26.67l15.843-94.17a22.99,22.99,0,1,1,45.343,7.628l-10.8,64.826,82.969-10.419Z" fill="#1E3D59"></path>
        <g id="b_4_b-2" data-name="b_4_b">
          <path d="M75.866,408.07a.419.419,0,0,1-.073-.831l112.776-20.38-4.87-37.545-82.556,10.368a.418.418,0,0,1-.465-.484l6.868-41.432a.413.413,0,0,1,.481-.344.419.419,0,0,1,.345.481L101.6,358.781l82.412-10.35a.422.422,0,0,1,.467.362l4.976,38.353a.419.419,0,0,1-.341.466L75.942,408.064A.487.487,0,0,1,75.866,408.07Z" fill="#0c0c0c"></path>
        </g>
        <rect x="93.766" y="359.432" width="7.372" height="0.838" transform="translate(-55.655 19.928) rotate(-9.095)" fill="#0c0c0c"></rect>
      </g>
    </g>
    <g>
      <path d="M813.022,632.167h-54.88v-2h54.88a51,51,0,0,0,50.946-50.946V226.882h2V579.221A53.007,53.007,0,0,1,813.022,632.167Z" fill="#292a2e"></path>
      <g>
        <circle cx="864.968" cy="289.167" r="6.425" fill="#fff"></circle>
        <path d="M864.968,296.592a7.426,7.426,0,1,1,7.426-7.425A7.434,7.434,0,0,1,864.968,296.592Zm0-12.851a5.426,5.426,0,1,0,5.426,5.426A5.432,5.432,0,0,0,864.968,283.741Z" fill="#292a2e"></path>
      </g>
      <g>
        <circle cx="864.968" cy="379.595" r="6.425" fill="#292a2e"></circle>
        <path d="M864.968,387.021a7.426,7.426,0,1,1,7.426-7.426A7.434,7.434,0,0,1,864.968,387.021Zm0-12.851a5.426,5.426,0,1,0,5.426,5.425A5.432,5.432,0,0,0,864.968,374.17Z" fill="#fff"></path>
      </g>
      <g>
        <circle cx="864.968" cy="470.023" r="6.425" fill="#fff"></circle>
        <path d="M864.968,477.449a7.426,7.426,0,1,1,7.426-7.426A7.434,7.434,0,0,1,864.968,477.449Zm0-12.851a5.426,5.426,0,1,0,5.426,5.425A5.431,5.431,0,0,0,864.968,464.6Z" fill="#292a2e"></path>
      </g>
      <g>
        <circle cx="864.968" cy="560.452" r="6.425" fill="#fff"></circle>
        <path d="M864.968,567.877a7.426,7.426,0,1,1,7.426-7.426A7.434,7.434,0,0,1,864.968,567.877Zm0-12.851a5.426,5.426,0,1,0,5.426,5.425A5.432,5.432,0,0,0,864.968,555.026Z" fill="#292a2e"></path>
      </g>
      <g>
        <circle cx="815.873" cy="631.402" r="6.425" fill="#292a2e"></circle>
        <path d="M815.874,638.827A7.425,7.425,0,1,1,823.3,631.4,7.434,7.434,0,0,1,815.874,638.827Zm0-12.85A5.425,5.425,0,1,0,821.3,631.4,5.43,5.43,0,0,0,815.874,625.977Z" fill="#fff"></path>
      </g>
    </g>
    <path d="M1,800.671H929.139a1,1,0,0,0,0-2H1a1,1,0,0,0,0,2Z" fill="#262626"></path>
  </g>
</svg>