<svg id="Layer_1" data-name="Layer 1" xmlns="http://www.w3.org/2000/svg" viewBox="0 0 749.719 598.445">
  <path d="M58.446,598.445H690.383a58.465,58.465,0,0,0,57.278-47.014c12.608-62.6-32.671-180.415-137.1-257.909C456.5,179.208,455.508,44.212,328.25,65.709c-211.6,35.746-139.779,168.6-222.23,263.9C34.7,412.051,15.353,463.053,1.339,527.8A58.376,58.376,0,0,0,58.446,598.445Z" fill="#f3f5fd"></path>
  <g>
    <g>
      <path d="M256.32,366.963c-.617-.125-2.494-.5-20.3-6.367l6.566-19.948c7.551,2.487,16.635,5.4,18.143,5.785-.1-.024-.176-.04-.238-.052Z" fill="#E98862"></path>
      <path d="M222.013,384.194a4.107,4.107,0,0,0,3.323,5.017h0a4.108,4.108,0,0,0,4.062-1.736L243.2,365.7a3.463,3.463,0,0,0,.378-2.866,19.1,19.1,0,0,1-.558-11.948,17.031,17.031,0,0,1,5.24-7.793,1.546,1.546,0,0,0-.562-2.741l-11.6-2.861a2.678,2.678,0,0,0-3.244,1.97Z" fill="#c1d8ed"></path>
      <path d="M411.078,510.913,391.8,502.585c3.152-7.3,6.873-16.081,7.388-17.55-.032.094-.056.172-.074.233l20.127,6C419.062,491.866,418.515,493.7,411.078,510.913Z" fill="#E98862"></path>
      <path d="M433.326,526.978a4.107,4.107,0,0,0,5.295-2.859h0a4.107,4.107,0,0,0-1.365-4.2l-20.448-15.7a3.46,3.46,0,0,0-2.82-.633,19.1,19.1,0,0,1-11.95-.516,17.041,17.041,0,0,1-7.292-5.917,1.546,1.546,0,0,0-2.78.313l-3.89,11.3a2.678,2.678,0,0,0,1.671,3.408Z" fill="#c1d8ed"></path>
      <path d="M455.5,376.9c-1.03-22.767-22.109-126.353-24.342-137.524L355.523,242.8s-25.075,97.519-26.094,100.236l-72.683-5.15-7.453,36.242,89.888,15.158A21.035,21.035,0,0,0,363.4,377.42s28.581-84.02,29.158-85.569L416.08,369.8,389.526,489.616l35.33,10.99S455.92,386.107,455.5,376.9Z" fill="#262626"></path>
    </g>
    <g>
      <path d="M420.839,28.232l11.107-4.109S433.347,8.867,420.536.8c-4.245-2.673-7.343,2.079-6.565,3.631,2.57,5.13,5.619,9.851,5.558,14.781-1.641-1.533-4.009-3.494-4.707-2.779C412.985,18.314,420.839,28.232,420.839,28.232Z" fill="#E98862"></path>
      <path d="M286.07,58.423l-11.821.728s-6.2-15.25,2.257-27.8c2.8-4.161,7.557-1.065,7.473.669-.279,5.731-2.4,13.141-.355,17.627.883-2.066,2.256-4.817,3.184-4.445C289.248,46.177,286.07,58.423,286.07,58.423Z" fill="#E98862"></path>
      <path d="M456.6,83.728l-20.785-65.4-20.78,6.6,19.036,59.9-32.339,41.121a30.813,30.813,0,0,0-8.655.024c-.62.08-1.61.23-2.9.43.68,5.46-32.88,11.28-34.56,5.88a39.5,39.5,0,0,0-12.182,4.126l-43.38-24.987L288.719,51.949,267.3,56.031l12.27,64.386a10.9,10.9,0,0,0,5.268,7.406l46.572,26.826c-.6,15.982,15.276,34.214,18.165,50.866,3.6,20.7-4.139,31.6-1.61,42.1,3.99,16.5,84.411-1.55,86.9-11.75,2.55-10.52-7.13-15.04-12.32-47.09-2.468-15.255-1.114-34.335-5.125-47.5l37.357-47.5A10.9,10.9,0,0,0,456.6,83.728Z" fill="#1E3D59"></path>
      <path d="M380.306,142.525c-11.98,2.9-23.01-4.84-24.69-10.24a.063.063,0,0,1,.04-.01c11.93-2.08,27.55-4.77,34.52-5.87C390.856,131.865,389.286,140.345,380.306,142.525Z" fill="#E98862"></path>
    </g>
    <g>
      <path d="M389.972,70.208s11.663,25.671,18.036,38.943a4.467,4.467,0,0,1-3.345,6.348l-26.284,4.088a4.472,4.472,0,0,1-5.067-3.522L365.73,78.982Z" fill="#0f1011"></path>
      <path d="M361.337,132.522c1.452-3.616,2.55-10.355-.273-22.131L376.4,105.02s1.108,18.905,10,23.605Z" fill="#E98862"></path>
      <path d="M382.578,125.242l-14.668-8.007,10.285-1.7A28.757,28.757,0,0,0,382.578,125.242Z" opacity="0.15"></path>
      <path d="M350.86,103.707c2.069,6.144,6.439,11.59,12.324,12.768a40.482,40.482,0,0,0,19.529-.373c17.066-4.089,7.571-42.861-1.816-49.226s-32.722,2.192-33.678,15.413C346.725,89.127,348.892,97.863,350.86,103.707Z" fill="#E98862"></path>
      <g>
        <circle cx="374.612" cy="93.589" r="1.449" fill="#0f1011"></circle>
        <circle cx="385.766" cy="90.916" r="1.449" fill="#0f1011"></circle>
        <path d="M387.776,87.481l-.009,0-3.8.538a.681.681,0,0,1-.77-.578.659.659,0,0,1,.578-.77l3.8-.539a.681.681,0,0,1,.2,1.347Z" fill="#0f1011"></path>
        <path d="M371.12,91.473a.681.681,0,0,1-.363-1.3l3.6-1.479a.681.681,0,0,1,.518,1.26l-3.6,1.478A.734.734,0,0,1,371.12,91.473Z" fill="#0f1011"></path>
        <path d="M377.018,104.764s5.372-.26,8.879-2.127c0,0,.508,3.485-3.621,4.476S377.018,104.764,377.018,104.764Z" fill="#fff"></path>
      </g>
      <g opacity="0.15">
        <path d="M382.2,100.549a.5.5,0,0,1-.3-.944l2.774-1.345-2.739-4.222a.5.5,0,1,1,.838-.543l2.926,4.51a.7.7,0,0,1-.28,1.006l-3.082,1.494A.5.5,0,0,1,382.2,100.549Z"></path>
      </g>
      <path d="M391.373,73.285s-5.713-20.073-37.726-9.947c-7.981,2.525-18.575,10.71-17.2,31.923.635,9.73-1.266,19.292-2.9,25.412a4.471,4.471,0,0,0,5,5.584L361.6,122.68a4.464,4.464,0,0,0,3.734-5.091c-.01-.065-.021-.129-.034-.194-.776-3.9-1.94-10.521-3.3-20.709.3-5.982-3.53-9.571,1.311-8.96C381.3,89.984,390.132,73.817,391.373,73.285Z" fill="#0f1011"></path>
      <path d="M368.336,100.879a6.143,6.143,0,0,1-11.948,2.863,6.041,6.041,0,0,1,4.343-7.357c.066-.017.132-.033.2-.048C365.235,95.524,367.545,97.579,368.336,100.879Z" fill="#E98862"></path>
    </g>
  </g>
  <path d="M622.751,183.272H458.159c.931-6.253,4.351-12.048,9.578-14.878,6.463-3.5,14.319-2.467,21.612-1.564s15.342,1.41,21.327-2.85c3.013-2.144,5.142-5.269,7.582-8.049,6.97-7.954,17.96-13.4,28.156-10.587,5.132,1.413,9.511,4.717,14.376,6.875a34.181,34.181,0,0,0,16.273,2.823c5.747-.426,11.465-2.306,17.166-1.463,7.227,1.076,13.145,6.38,17.43,12.3C615.718,171.484,618.618,176.921,622.751,183.272Z" fill="#dee8f5"></path>
  <path d="M287.345,282.389H76a14.716,14.716,0,0,1,9.591-21.22c6.9-1.637,14.7,1.722,20.988-1.548,4.88-2.54,7.134-8.274,8.173-13.671s1.332-11.1,3.954-15.934c4.405-8.116,14.864-11.741,23.9-9.807s16.532,8.513,21.47,16.316c2.031,3.209,3.877,6.834,7.224,8.625,3.865,2.066,8.675,1.081,12.645-.768s7.571-4.509,11.729-5.884a21.136,21.136,0,0,1,23.409,7.911c3.567,5.216,5.061,12.4,10.664,15.32a17.129,17.129,0,0,0,7.582,1.517c10.371.251,21.031-2.165,30.953.854A30.023,30.023,0,0,1,287.345,282.389Z" fill="#dee8f5"></path>
  <path d="M655.172,598.445h-108.5c-7.96-6.353-8.509-20.664-.259-27.055,6.359-4.925,15.972-3.608,21.949,1.515a21.2,21.2,0,0,1-.064-11.691c1.944-6.891,6.264-13.891,12.86-16.677,16.833-7.1,28.794,7.779,31.191,16.1,4.309-6.338,13.95-9.688,20-5.421,7.666,5.4,7.319,13.922,1.2,20.037,8.148-1.519,14.284-.347,19.935,5.718C657.786,585.588,658.444,593.456,655.172,598.445Z" fill="#8ddbe0"></path>
</svg>