<svg id="Layer_3" data-name="Layer 3" xmlns="http://www.w3.org/2000/svg" viewBox="0 0 686.853 514.916">
  <g>
    <g>
      <path d="M636.369,318.177a316.764,316.764,0,0,1-66.317,194.446H66.317A316.77,316.77,0,0,1,0,318.177C0,142.447,142.461,0,318.192,0S636.369,142.447,636.369,318.177Z" fill="#fff"></path>
      <path d="M636.369,318.177a316.764,316.764,0,0,1-66.317,194.446H66.317A316.77,316.77,0,0,1,0,318.177C0,142.447,142.461,0,318.192,0S636.369,142.447,636.369,318.177Z" fill="#1E3D59" opacity="0.1"></path>
    </g>
    <g>
      <rect x="344.379" y="4.069" width="341.593" height="89.163" rx="44.581" fill="#fff"></rect>
      <path d="M641.391,94.112H388.96a45.462,45.462,0,0,1,0-90.923H641.391a45.462,45.462,0,1,1,0,90.923ZM388.96,4.949a43.7,43.7,0,0,0,0,87.4H641.391a43.7,43.7,0,1,0,0-87.4Z" fill="#262626"></path>
    </g>
    <g>
      <polygon points="391.012 25.226 398.526 40.094 415.014 42.633 403.219 54.027 406.198 70.315 391.393 62.489 376.746 70.016 379.392 53.785 367.361 42.15 383.8 39.945 391.012 25.226" fill="#1E3D59"></polygon>
      <polygon points="452.237 25.226 459.751 40.094 476.239 42.633 464.444 54.027 467.423 70.315 452.618 62.489 437.971 70.016 440.617 53.785 428.586 42.15 445.026 39.945 452.237 25.226" fill="#1E3D59"></polygon>
      <polygon points="513.462 25.226 520.977 40.094 537.465 42.633 525.669 54.027 528.648 70.315 513.844 62.489 499.197 70.016 501.842 53.785 489.811 42.15 506.251 39.945 513.462 25.226" fill="#1E3D59"></polygon>
      <polygon points="574.687 25.226 582.202 40.094 598.69 42.633 586.894 54.027 589.873 70.315 575.069 62.489 560.422 70.016 563.068 53.785 551.036 42.15 567.476 39.945 574.687 25.226" fill="#1E3D59"></polygon>
      <polygon points="635.913 25.226 643.427 40.094 659.915 42.633 648.12 54.027 651.099 70.315 636.294 62.489 621.647 70.016 624.293 53.785 612.262 42.15 628.701 39.945 635.913 25.226" fill="#1E3D59" opacity="0.2"></polygon>
    </g>
    <g>
      <g>
        <g>
          <path d="M182.157,105.337s-2.717,32.172-10.171,43.73c-21.459,33.273-28.174,71.013-7.632,91.156S318.144,263,329.045,217.7c9.178-38.138-8.988-42.578-12.865-74.243-1.755-14.327-6.747-44.393-6.747-44.393" fill="#0a0a0a"></path>
          <path id="sk" d="M295.855,209.942c-.231-.03-2.784,42.33-51.994,38.637-34.068-2.552-46.215-38.7-47-38.7,3.673-.781,9.859-1.916,11.49-2.786,5.365-2.883,12-5.882,13.731-16.3,1-6-.694-36.722-.173-42.8l52.294,11.672c-.731,12.83-5.845,42.575,12.08,47.839C289.269,208.381,292.482,209.181,295.855,209.942Z" fill="#E98862"></path>
          <path id="sh" d="M274.94,195.354a37.849,37.849,0,0,1-1.573-8.116,86.513,86.513,0,0,1,.342-18.878,57.335,57.335,0,0,1-28.9-12.662c-.971,3.586-6.311,19.256-4.832,22.664C242.769,184.8,255.9,195.354,274.94,195.354Z" fill="#0c0c0c" opacity="0.5"></path>
          <path d="M267.492,182.152c-20.65,1.629-47.176-7.09-52.214-34.64l-4.547-24.858c-5.038-27.55,5.347-52.53,31.287-57.274h0c25.94-4.744,49.413,14.043,54.452,41.593l2.012,11.006C300.416,128.55,304.335,179.245,267.492,182.152Z" fill="#E98862"></path>
          <path d="M275.922,144.048l.051-.008a29.082,29.082,0,0,0,3.112-.772c1.527-.481,3.527-1.279,3.276-2.657-.287-1.57-7.685-17.72-8.527-19.557a.666.666,0,0,0-1.21.555c3.155,6.878,8.234,18.185,8.427,19.242-.174.488-2.709,1.4-5.317,1.88a.666.666,0,0,0,.188,1.317Z" fill="#0c0c0c"></path>
          <path d="M272.013,155.905a27.2,27.2,0,0,0,11.816-4.407.665.665,0,0,0-.719-1.119c-7.658,4.922-15.242,5.68-21.932,2.19a4.064,4.064,0,0,0-.417-.2.665.665,0,0,0-.459,1.249c.052.022.14.069.261.133A19.957,19.957,0,0,0,272.013,155.905Z" fill="#0c0c0c"></path>
          <path d="M189.951,131.18l23.252-4.116c17.634-7.009,23.141-37.427,23.141-37.427s21.238,20.955,73.089,9.43c0,0-9.938-72.273-86.562-51.747-24.707,6.618-42.562,31.365-40.561,64.6C183.712,135.207,189.951,131.18,189.951,131.18Z" fill="#0a0a0a"></path>
          <path d="M218.424,155.611c-7.883,1.442-15.816-5.823-17.258-13.706s4.154-13.4,12.037-14.841l5.028,4.539,6.97,22.768Z" fill="#E98862"></path>
          <path d="M279.63,108.384a13.626,13.626,0,0,1,6.7-2.329,12.044,12.044,0,0,1,3.6.262,14.573,14.573,0,0,1,3.43,1.23l.034.016a.509.509,0,0,0,.449-.913,15.642,15.642,0,0,0-3.65-1.449,13.23,13.23,0,0,0-3.93-.418,14.993,14.993,0,0,0-7.545,2.371.764.764,0,0,0,.838,1.278l.018-.012Z" fill="#0c0c0c"></path>
          <path d="M258.411,110.934a15.008,15.008,0,0,0-7.9.418,13.243,13.243,0,0,0-3.535,1.767,15.607,15.607,0,0,0-2.914,2.634.509.509,0,0,0,.74.7l.027-.028a14.525,14.525,0,0,1,2.783-2.351,11.991,11.991,0,0,1,3.281-1.506,13.633,13.633,0,0,1,7.1-.163l.058.015a.764.764,0,0,0,.386-1.479Z" fill="#0c0c0c"></path>
          <path d="M272.872,162.158a13.525,13.525,0,0,0,2.266-.441.665.665,0,1,0-.36-1.281c-4.461,1.254-6.983-.459-7.089-.533a.665.665,0,0,0-.771,1.084A9.012,9.012,0,0,0,272.872,162.158Z" fill="#0c0c0c"></path>
          <path d="M213.225,126.684c15.68-5.52,21.039-16.187,22.774-24.164a39.057,39.057,0,0,0,0-16.137l-.485.124a38.519,38.519,0,0,1-.01,15.925c-1.711,7.846-7,18.34-22.448,23.782Z" fill="#0c0c0c"></path>
        </g>
        <ellipse cx="254.57" cy="141.43" rx="6.187" ry="4.538" transform="translate(-12.967 26.397) rotate(-5.789)" fill="#0c0c0c" opacity="0.1"></ellipse>
        <path d="M291.049,136.633c.26,2.49,3.22,4.23,6.62,3.89a8.554,8.554,0,0,0,1.73-.36c.21-2.96.27-5.81.23-8.45a7.793,7.793,0,0,0-2.88-.22C293.349,131.833,290.8,134.133,291.049,136.633Z" fill="#0c0c0c" opacity="0.1"></path>
      </g>
      <polygon points="141.27 461.628 135.365 513.916 349.464 513.916 346.162 461.299 141.27 461.628" fill="#262626"></polygon>
      <path id="b_1_b" d="M242.732,238.051c-34.092-1.606-35.527-30.543-35.527-30.543s-16.892,1.092-28.122,2.611c-18.384,2.487-37.873,8.8-46.718,24.085-6.358,10.991-7.889,12.98-2.105,75,4.188,44.906,11.01,152.426,11.01,152.426l204.892-.329S355.28,323.416,357,303.2c3.283-38.589,8.465-92.979-2.535-95.694-12.815-3.163-54.647,2.037-68.177,0C286.059,207.476,289.159,240.24,242.732,238.051Z" fill="#1E3D59"></path>
      <g>
        <path d="M605.862,86.794a5.419,5.419,0,0,1,7.413-2.634,5.625,5.625,0,0,1,2.372,7.305l-2.965,6.691,19.049-16.821c2.085-1.907,5.864-2.914,7.849-.434a5.414,5.414,0,0,1,.455,6.726.368.368,0,0,1,.069.056.474.474,0,0,1,.031.054l3.216-2.941a5.424,5.424,0,0,1,8.3,1.2,5.551,5.551,0,0,1-1.138,6.931l-1.368,1.251a.5.5,0,0,1,.023.18,5.415,5.415,0,0,1,6.845,1.278,5.625,5.625,0,0,1-.759,7.643l-3.363,3.076a.5.5,0,0,1,.43.156.484.484,0,0,1,.111.255,5.419,5.419,0,0,1,5.939,2.46,5.551,5.551,0,0,1-1.138,6.931L628.56,142.386a27.293,27.293,0,0,1-30.182,4.488l-15.794-7.544Z" fill="#E98862"></path>
        <g opacity="0.2">
          <path d="M621.268,104.374a.5.5,0,0,0,.7.034l18.094-16.019a.5.5,0,1,0-.663-.749l-18.1,16.02a.5.5,0,0,0-.042.706Z" fill="#0c0c0c"></path>
        </g>
        <g opacity="0.2">
          <path d="M628.114,112.549a.5.5,0,0,0,.7.035l20.193-17.879a.5.5,0,0,0,.043-.706.517.517,0,0,0-.706-.042l-20.194,17.878a.5.5,0,0,0-.042.706Z" fill="#0c0c0c"></path>
        </g>
        <g opacity="0.2">
          <path d="M635.476,121.446a.5.5,0,0,0,.7.035l16.109-14.261a.5.5,0,0,0-.664-.749l-16.108,14.261a.5.5,0,0,0-.043.706Z" fill="#0c0c0c"></path>
        </g>
      </g>
      <path d="M587.6,105.337,479.015,194.286l-150.31,13.56a37.5,37.5,0,0,0,3.118,74.869q1.59,0,3.2-.136l162.109-14.558a37.5,37.5,0,0,0,20.884-8.59l113.72-100.887Z" fill="#1E3D59"></path>
      <polygon points="599.031 81.563 621.645 75.225 629.656 53.112 642.197 72.535 665.538 72.858 650.675 91.2 657.09 113.513 635.363 105.425 615.987 118.892 617.421 95.552 599.031 81.563" fill="#1E3D59"></polygon>
      <path d="M611.682,100.655l3.965-9.19a5.625,5.625,0,0,0-2.372-7.305,5.419,5.419,0,0,0-7.413,2.634" fill="#E98862"></path>
      <g>
        <path d="M328.185,376.411a5.613,5.613,0,0,1-5.657,5.186l-4.557.055a.489.489,0,0,1,.212.4.449.449,0,0,1-.084.267,5.416,5.416,0,0,1,2.784,5.795,5.568,5.568,0,0,1-5.474,4.408l-38.85.42a27.275,27.275,0,0,1-25.486-16.774l-6.751-16.156,20.675-4.4.494-5.154,31.217-14.081a5.419,5.419,0,0,1,7.281,2.976,5.629,5.629,0,0,1-3.1,7.029l-6.676,3.008,25.413.171c2.83-.032,6.316,1.735,6.141,4.9a5.411,5.411,0,0,1-4.139,5.324c0,.031.006.053.008.085l-.016.057,4.358-.046a5.42,5.42,0,0,1,5.387,6.437,5.54,5.54,0,0,1-5.461,4.4l-1.864.027a.938.938,0,0,1-.091.141A5.422,5.422,0,0,1,328.185,376.411Z" fill="#E98862"></path>
        <g>
          <g opacity="0.2">
            <path d="M296.466,359.752a.5.5,0,0,0,.5.491l24.167.126a.5.5,0,1,0,0-1l-24.167-.126a.5.5,0,0,0-.5.5Z" fill="#0c0c0c"></path>
          </g>
          <g opacity="0.2">
            <path d="M296.116,370.409a.5.5,0,0,0,.5.491l26.97.141a.5.5,0,0,0,.5-.5.517.517,0,0,0-.5-.5l-26.97-.14a.5.5,0,0,0-.5.5Z" fill="#0c0c0c"></path>
          </g>
          <g opacity="0.2">
            <path d="M295.671,381.949a.5.5,0,0,0,.5.491l21.513.112a.5.5,0,1,0,0-1l-21.513-.112a.5.5,0,0,0-.5.5Z" fill="#0c0c0c"></path>
          </g>
        </g>
      </g>
      <path d="M274.552,404.505,111.887,433.481a37.5,37.5,0,0,1-43.9-51.449l59.239-137.8c8.4-18.932,29.161-27.471,48.09-19.072a37.5,37.5,0,0,1,19.072,49.484L159.6,357.108l108.788-14.455Z" fill="#1E3D59"></path>
      <path d="M139.92,429.178a.47.47,0,0,0,.138-.02L274.69,404.986a.5.5,0,0,0,.345-.606l-6.163-63.854a.5.5,0,0,0-.6-.361L160.5,356.387l34.331-81.527a.5.5,0,0,0-.9-.433L159.15,356.891a.5.5,0,0,0,.564.7l108.313-16.347,5.917,62.912L139.781,428.2a.5.5,0,0,0,.139.981Z" fill="#0c0c0c"></path>
      <path d="M146.137,359.407a.485.485,0,0,0,.106-.012l13.465-1.8a.5.5,0,1,0-.213-.977l-13.465,1.8a.5.5,0,0,0,.107.988Z" fill="#0c0c0c"></path>
      <path d="M358.905,281.059a.5.5,0,0,0,.5-.461l2.228-28.839a.5.5,0,0,0-1-.077l-2.228,28.839a.5.5,0,0,0,.46.536A.248.248,0,0,0,358.905,281.059Z" fill="#0c0c0c"></path>
      <circle cx="290.74" cy="114.596" r="3.248" fill="#0c0c0c"></circle>
      <circle cx="257.817" cy="120.158" r="3.248" fill="#0c0c0c"></circle>
    </g>
    <path d="M60.12,514.916H576.249a1,1,0,0,0,0-2H60.12a1,1,0,0,0,0,2Z" fill="#292a2e"></path>
  </g>
</svg>